<?xml version="1.0" encoding="UTF-8"?>
<svg id="Capa_2" data-name="Capa 2" xmlns="http://www.w3.org/2000/svg" viewBox="0 0 54.57 54.4">
  <defs>
    <style>
      .cls-1 {
        fill: #99a723;
      }
    </style>
  </defs>
  <g id="icons">
    <g>
      <path class="cls-1" d="M35.77,13.77c.17-.16.54-.65.67-.87.53-.9.26-2.4,1.76-2l5.96,5.86c.38.37.4,1.03.05,1.42l-5,5c5.4,1.46,5.33,9.26-.11,10.52-.23.23.28,5.23-.24,6.4-1.21,2.7-5.23,1.37-6.92-.16.12,1.59,1.19,2.78,1.53,4.32.32,1.43.26,3.18-.2,4.58-.3.91-1.27,2.28-1.42,3.01-.16.77.37,2.38-.77,2.53-.6.08-1-.25-1.07-.85-.32-2.79,1.06-3.38,1.63-5.65.92-3.69-1.36-4.95-1.62-8.1-.31-3.81.43-8.32-.01-12.03-.39-3.24-5.1-3.25-5.44.1-.41,4.04.38,8.78,0,12.85-.12,1.29-1.6,1.21-1.8.31l-.03-9.41-1.53-1.65c-.71,2.41-3.08,4.13-5.61,3.99l-2.35,6.92c-.13.53-.07,1,.09,1.51.84,2.79,2.72,5.79,3.67,8.61.27.79.72,3.15-.37,3.39-1.55.34-1.05-1.73-1.34-2.7-.75-2.51-2.45-5.41-3.4-7.96-.39-1.06-.64-1.71-.51-2.89l2.5-7.33c-4.38-1.77-4.55-7.66-.42-9.91.25-.14.57-.2.83-.31.11-.05.2.07.16-.18l-5.18-5.28c-.13-.34-.02-.67.23-.92l4.94-4.94c-3.16-1.1-4.92-4.42-3.5-7.6C13.02-.32,19.91.27,21.2,5.18L26.31.06l.98-.06,5.96,5.86c1.08,1.76-.92,1.56-1.92,2.18-4.36,2.72.55,9.29,4.43,5.74ZM33.96,27.14c.42.42.16,1.86.47,2.66.99,2.55,4.4,3.1,6.15,1,1.8-2.16.48-5.63-2.34-5.95-.45-.05-1.14.09-1.52-.07-.55-.23-.63-1.14-.18-1.53l5.74-5.74-4.03-4.03c-1.55,2.87-4.96,4.02-7.84,2.27-3.7-2.24-3.3-7.73.51-9.61l-4.03-4.03-5.74,5.74c-.39.45-1.3.38-1.53-.18-.16-.38-.02-1.06-.07-1.52-.33-2.93-4-4.15-6.13-2.17-2.11,1.96-.95,5.85,1.89,6.18.79.09,2.33-.29,2.2,1.08-.08.81-6.09,5.93-6.02,6.36l5.73,5.75c.91,1.67-.69,1.38-1.69,1.49-3.3.37-4.43,4.58-1.7,6.56,2.26,1.64,5.4.15,5.71-2.55.08-.68-.27-1.76.66-1.96s1.81,1.5,2.53,1.91c-.61-6.48,8.56-7.39,9.09-.91.55-.47,1.36-1.53,2.13-.76ZM37.27,33.94c-2.36-.33-3.98-1.8-4.82-3.99l-.57.57c.07,2.59-.75,6,1.3,8.01.85.84,3.88,2.27,4.1.34.17-1.53-.12-3.37-.02-4.93Z"/>
      <path class="cls-1" d="M8.04,6.92c.64.72-.06,1.84-.99,1.5-1.37-.98-3.77-1.81-4.99-2.85-.82-.7-.12-1.94.91-1.59l5.08,2.94Z"/>
      <path class="cls-1" d="M46.53,29.12c-.62-.68-.05-1.78.99-1.5,1.37.37,3.55,2.28,4.99,2.85.81.72.14,1.92-.9,1.59l-5.08-2.94Z"/>
      <path class="cls-1" d="M8.04,29.12l-5.08,2.94c-1.03.35-1.73-.89-.91-1.59l4.99-2.85c.94-.36,1.62.8.99,1.5Z"/>
      <path class="cls-1" d="M46.53,8.21c-.36-.39-.31-.95.05-1.33l5.03-2.9c.81-.26,1.46.39,1.2,1.2-.1.33-.45.48-.71.65-.66.45-3.98,2.42-4.58,2.58-.35.1-.73.07-.99-.21Z"/>
      <path class="cls-1" d="M.66,17.13l5.88-.02c1.01.16,1,1.65,0,1.8-.9.14-4.89.14-5.78,0-.96-.15-1.02-1.52-.1-1.79Z"/>
      <path class="cls-1" d="M47.94,17.13l5.88-.02c1.01.16,1,1.65,0,1.8-.9.14-4.89.14-5.78,0-.96-.15-1.02-1.52-.1-1.79Z"/>
    </g>
  </g>
</svg>